<?xml version="1.0" encoding="utf-8"?>
<!-- Generator: Adobe Illustrator 21.0.0, SVG Export Plug-In . SVG Version: 6.00 Build 0)  -->
<svg version="1.1" id="Layer_1" xmlns="http://www.w3.org/2000/svg" xmlns:xlink="http://www.w3.org/1999/xlink" x="0px" y="0px"
	 viewBox="0 0 64 64" style="enable-background:new 0 0 64 64;" xml:space="preserve">
<style type="text/css">
	.st0{fill:#455A64;stroke:#37474F;stroke-linecap:round;stroke-linejoin:round;stroke-miterlimit:10;}
	.st1{fill:#78909C;stroke:#37474F;stroke-linecap:round;stroke-linejoin:round;stroke-miterlimit:10;}
	.st2{fill:#ECEFF1;stroke:#37474F;stroke-linecap:round;stroke-linejoin:round;stroke-miterlimit:10;}
	.st3{fill:none;stroke:#FFFFFF;stroke-linecap:round;stroke-linejoin:round;stroke-miterlimit:10;}
	.st4{fill:#FFCA28;stroke:#37474F;stroke-linecap:round;stroke-linejoin:round;stroke-miterlimit:10;}
	.st5{fill:none;stroke:#37474F;stroke-linecap:round;stroke-linejoin:round;stroke-miterlimit:10;}
	.st6{fill:#B0BEC5;}
	.st7{fill:#37474F;}
	.st8{fill:#455A64;}
	.st9{fill:#9CCC65;stroke:#37474F;stroke-linecap:round;stroke-linejoin:round;stroke-miterlimit:10;}
	.st10{fill:none;stroke:#C5E1A5;stroke-linecap:round;stroke-linejoin:round;stroke-miterlimit:10;}
	.st11{fill:#26C6DA;stroke:#37474F;stroke-linecap:round;stroke-linejoin:round;stroke-miterlimit:10;}
	.st12{fill:#EF5350;stroke:#37474F;stroke-linecap:round;stroke-linejoin:round;stroke-miterlimit:10;}
	.st13{fill:#B0BEC5;stroke:#37474F;stroke-linecap:round;stroke-linejoin:round;stroke-miterlimit:10;}
	.st14{fill:none;stroke:#EF9A9A;stroke-linecap:round;stroke-linejoin:round;stroke-miterlimit:10;}
	.st15{fill:none;stroke:#FFE082;stroke-linecap:round;stroke-linejoin:round;stroke-miterlimit:10;}
	.st16{fill:#D32F2F;stroke:#37474F;stroke-linecap:round;stroke-linejoin:round;stroke-miterlimit:10;}
	.st17{fill:#0097A7;stroke:#37474F;stroke-linecap:round;stroke-linejoin:round;stroke-miterlimit:10;}
	.st18{fill:#689F38;stroke:#37474F;stroke-linecap:round;stroke-linejoin:round;stroke-miterlimit:10;}
	.st19{fill:#FFA000;stroke:#37474F;stroke-linecap:round;stroke-linejoin:round;stroke-miterlimit:10;}
	.st20{fill:#FFA000;}
	.st21{fill:#FF6F00;}
	.st22{fill:#D32F2F;}
	.st23{fill:#0097A7;}
	.st24{fill:none;stroke:#80DEEA;stroke-linecap:round;stroke-linejoin:round;stroke-miterlimit:10;}
	.st25{fill:#689F38;}
	.st26{fill:none;stroke:#B0BEC5;stroke-linecap:round;stroke-linejoin:round;stroke-miterlimit:10;}
	.st27{fill:#78909C;stroke:#37474F;stroke-miterlimit:10;}
	.st28{fill:#78909C;}
	.st29{fill:#B71C1C;}
	.st30{fill:#F57F17;}
	.st31{fill:#006064;}
	.st32{fill:#26A69A;stroke:#37474F;stroke-linecap:round;stroke-linejoin:round;stroke-miterlimit:10;}
</style>
<g>
	<path class="st13" d="M46.9,11.4l2.7,5.8c0.4,0.8,1.1,1.3,1.9,1.4l6.3,1c2,0.3,2.8,2.8,1.4,4.2l-4.7,4.8c-0.6,0.6-0.8,1.4-0.7,2.1
		l1.1,6.7c0.3,2.1-1.9,3.6-3.7,2.6l-5.4-3c-0.8-0.4-1.7-0.4-2.4,0l-5.4,3c-1.8,1-4-0.5-3.7-2.6l1.1-6.7c0.1-0.8-0.1-1.6-0.7-2.1
		l-4.7-4.8c-1.4-1.5-0.6-3.9,1.4-4.2l6.3-1c0.8-0.1,1.5-0.7,1.9-1.4l2.7-5.8C43.3,9.5,46,9.5,46.9,11.4z"/>
	<path class="st2" d="M46.9,7.4l2.7,5.8c0.4,0.8,1.1,1.3,1.9,1.4l6.3,1c2,0.3,2.8,2.8,1.4,4.2l-4.7,4.8c-0.6,0.6-0.8,1.4-0.7,2.1
		l1.1,6.7c0.3,2.1-1.9,3.6-3.7,2.6l-5.4-3c-0.8-0.4-1.7-0.4-2.4,0l-5.4,3c-1.8,1-4-0.5-3.7-2.6l1.1-6.7c0.1-0.8-0.1-1.6-0.7-2.1
		l-4.7-4.8c-1.4-1.5-0.6-3.9,1.4-4.2l6.3-1c0.8-0.1,1.5-0.7,1.9-1.4l2.7-5.8C43.3,5.5,46,5.5,46.9,7.4z"/>
	<path class="st19" d="M21.6,29l2.7,5.8c0.4,0.8,1.1,1.3,1.9,1.4l6.3,1c2,0.3,2.8,2.8,1.4,4.2l-4.7,4.8c-0.6,0.6-0.8,1.4-0.7,2.1
		l1.1,6.7c0.3,2.1-1.9,3.6-3.7,2.6l-5.4-3c-0.8-0.4-1.7-0.4-2.4,0l-5.4,3c-1.8,1-4-0.5-3.7-2.6l1.1-6.7c0.1-0.8-0.1-1.6-0.7-2.1
		l-4.7-4.8c-1.4-1.5-0.6-3.9,1.4-4.2l6.3-1c0.8-0.1,1.5-0.7,1.9-1.4l2.7-5.8C18,27.1,20.7,27.1,21.6,29z"/>
	<path class="st4" d="M21.6,25l2.7,5.8c0.4,0.8,1.1,1.3,1.9,1.4l6.3,1c2,0.3,2.8,2.8,1.4,4.2l-4.7,4.8c-0.6,0.6-0.8,1.4-0.7,2.1
		l1.1,6.7c0.3,2.1-1.9,3.6-3.7,2.6l-5.4-3c-0.8-0.4-1.7-0.4-2.4,0l-5.4,3c-1.8,1-4-0.5-3.7-2.6l1.1-6.7c0.1-0.8-0.1-1.6-0.7-2.1
		l-4.7-4.8c-1.4-1.5-0.6-3.9,1.4-4.2l6.3-1c0.8-0.1,1.5-0.7,1.9-1.4l2.7-5.8C18,23.1,20.7,23.1,21.6,25z"/>
	<path class="st15" d="M6.4,35.2l6.3-1c1.5-0.2,2.8-1.2,3.4-2.5l2.7-5.8"/>
	<path class="st3" d="M31.8,17.6l6.3-1c1.5-0.2,2.8-1.2,3.4-2.5l2.7-5.8"/>
</g>
</svg>
